<?xml version="1.0" encoding="utf-8"?>
<svg width="26px" height="29px" viewBox="0 0 26 29" version="1.1" xmlns:xlink="http://www.w3.org/1999/xlink" xmlns="http://www.w3.org/2000/svg">
  <defs>
    <linearGradient gradientUnits="objectBoundingBox" x1="0" y1="0.5" x2="1" y2="0.5" id="gradient_1">
      <stop offset="0%" stop-color="#6359E9" />
      <stop offset="50.56818%" stop-color="#06B6D4" />
      <stop offset="100%" stop-color="#FD5454" />
    </linearGradient>
    <path d="M6.51563 -0.1875Q5.22656 -0.187496 4.01953 0.451172Q2.8125 1.08984 1.92188 2.28516Q1.01953 3.48047 0.509766 5.18555Q0 6.89063 0 9.07031L0 17.2969C0 17.5156 0.0625 17.7188 0.1875 17.9063Q0.234375 17.9766 0.386719 18.1113Q0.539062 18.2461 0.714844 18.293Q0.785156 18.3281 0.990234 18.334C1.12695 18.3379 1.25 18.3242 1.35938 18.293Q1.42969 18.2695 1.59961 18.1582Q1.76953 18.0469 1.875 17.9063Q1.92187 17.8359 1.99805 17.6484Q2.07422 17.4609 2.07422 17.2852L2.07422 17.2969L2.07422 9.07031Q2.07422 7.14844 2.50195 5.77148Q2.92969 4.39453 3.57422 3.52734Q4.21875 2.67188 4.98047 2.2793Q5.74219 1.88672 6.51563 1.88672Q6.84375 1.88672 7.13672 1.6875Q7.20703 1.65234 7.33008 1.49414Q7.45313 1.33594 7.52344 1.17188Q7.54688 1.10156 7.55859 0.896484Q7.57031 0.691406 7.52344 0.527344Q7.48828 0.457031 7.38281 0.28125Q7.27734 0.105469 7.13672 0Q7.06641 -0.0351563 6.87305 -0.111328Q6.67969 -0.187498 6.51563 -0.1875ZM17.4844 -0.1875Q17.1562 -0.187496 16.8633 0Q16.793 0.0585976 16.6641 0.210938Q16.5352 0.363283 16.4766 0.527344Q16.4414 0.609377 16.4297 0.814453Q16.418 1.01953 16.4766 1.17188Q16.5117 1.25391 16.6172 1.42383Q16.7227 1.59375 16.8633 1.6875Q16.9336 1.74609 17.1211 1.81641Q17.3086 1.88672 17.4844 1.88672Q18.2461 1.88672 19.0078 2.2793Q19.7695 2.67188 20.4258 3.52734Q21.0586 4.39453 21.4922 5.77148Q21.9258 7.14844 21.9258 9.07031L21.9258 17.2969Q21.9141 17.625 22.125 17.9063Q22.1602 17.9766 22.3184 18.1113Q22.4766 18.2461 22.6406 18.293Q22.7109 18.3281 22.916 18.334C23.0527 18.3379 23.1758 18.3242 23.2852 18.293Q23.3555 18.2695 23.5313 18.1582Q23.707 18.0469 23.8125 17.9063Q23.8477 17.8359 23.9238 17.6484Q24 17.4609 24 17.2852L24 17.2969L24 9.07031Q24 6.89063 23.4844 5.18555Q22.9688 3.48047 22.0781 2.28516Q21.1758 1.08984 19.9688 0.451172Q18.7617 -0.187498 17.4844 -0.1875ZM6.50391 5.28516Q6.1875 5.28516 5.92969 5.46094Q5.85938 5.50781 5.73047 5.64844Q5.60156 5.78906 5.54297 5.92969Q5.50781 6 5.48438 6.19336Q5.46094 6.38672 5.49609 6.53906Q5.50781 6.60938 5.58984 6.78516Q5.67188 6.96094 5.78906 7.06641L11.2734 12.5508Q11.5781 12.8555 12 12.8555Q12.1055 12.8555 12.3398 12.7793Q12.5742 12.7031 12.7383 12.5508L18.2109 7.06641Q18.4688 6.82031 18.5156 6.49219Q18.5273 6.41016 18.5098 6.20508Q18.4922 6 18.4219 5.84766Q18.3867 5.77734 18.2461 5.625Q18.1055 5.47266 17.9648 5.39063Q17.8828 5.35547 17.6836 5.31445Q17.4844 5.27344 17.3203 5.29688Q17.2383 5.3086 17.0508 5.39648Q16.8633 5.48438 16.7461 5.60156L12 10.3477L7.25391 5.60156Q7.10156 5.44922 6.91406 5.36719Q6.85547 5.35547 6.73242 5.32031Q6.60938 5.28516 6.50391 5.28516Z" id="path_1" />
    <clipPath id="mask_1">
      <use xlink:href="#path_1" />
    </clipPath>
  </defs>
  <g id="Rectangle-Mask">
    <g id="Mask">
      <g id="M">
        <path d="M6.51563 -0.1875Q5.22656 -0.187496 4.01953 0.451172Q2.8125 1.08984 1.92188 2.28516Q1.01953 3.48047 0.509766 5.18555Q0 6.89063 0 9.07031L0 17.2969C0 17.5156 0.0625 17.7188 0.1875 17.9063Q0.234375 17.9766 0.386719 18.1113Q0.539062 18.2461 0.714844 18.293Q0.785156 18.3281 0.990234 18.334C1.12695 18.3379 1.25 18.3242 1.35938 18.293Q1.42969 18.2695 1.59961 18.1582Q1.76953 18.0469 1.875 17.9063Q1.92187 17.8359 1.99805 17.6484Q2.07422 17.4609 2.07422 17.2852L2.07422 17.2969L2.07422 9.07031Q2.07422 7.14844 2.50195 5.77148Q2.92969 4.39453 3.57422 3.52734Q4.21875 2.67188 4.98047 2.2793Q5.74219 1.88672 6.51563 1.88672Q6.84375 1.88672 7.13672 1.6875Q7.20703 1.65234 7.33008 1.49414Q7.45313 1.33594 7.52344 1.17188Q7.54688 1.10156 7.55859 0.896484Q7.57031 0.691406 7.52344 0.527344Q7.48828 0.457031 7.38281 0.28125Q7.27734 0.105469 7.13672 0Q7.06641 -0.0351563 6.87305 -0.111328Q6.67969 -0.187498 6.51563 -0.1875ZM17.4844 -0.1875Q17.1562 -0.187496 16.8633 0Q16.793 0.0585976 16.6641 0.210938Q16.5352 0.363283 16.4766 0.527344Q16.4414 0.609377 16.4297 0.814453Q16.418 1.01953 16.4766 1.17188Q16.5117 1.25391 16.6172 1.42383Q16.7227 1.59375 16.8633 1.6875Q16.9336 1.74609 17.1211 1.81641Q17.3086 1.88672 17.4844 1.88672Q18.2461 1.88672 19.0078 2.2793Q19.7695 2.67188 20.4258 3.52734Q21.0586 4.39453 21.4922 5.77148Q21.9258 7.14844 21.9258 9.07031L21.9258 17.2969Q21.9141 17.625 22.125 17.9063Q22.1602 17.9766 22.3184 18.1113Q22.4766 18.2461 22.6406 18.293Q22.7109 18.3281 22.916 18.334C23.0527 18.3379 23.1758 18.3242 23.2852 18.293Q23.3555 18.2695 23.5313 18.1582Q23.707 18.0469 23.8125 17.9063Q23.8477 17.8359 23.9238 17.6484Q24 17.4609 24 17.2852L24 17.2969L24 9.07031Q24 6.89063 23.4844 5.18555Q22.9688 3.48047 22.0781 2.28516Q21.1758 1.08984 19.9688 0.451172Q18.7617 -0.187498 17.4844 -0.1875ZM6.50391 5.28516Q6.1875 5.28516 5.92969 5.46094Q5.85938 5.50781 5.73047 5.64844Q5.60156 5.78906 5.54297 5.92969Q5.50781 6 5.48438 6.19336Q5.46094 6.38672 5.49609 6.53906Q5.50781 6.60938 5.58984 6.78516Q5.67188 6.96094 5.78906 7.06641L11.2734 12.5508Q11.5781 12.8555 12 12.8555Q12.1055 12.8555 12.3398 12.7793Q12.5742 12.7031 12.7383 12.5508L18.2109 7.06641Q18.4688 6.82031 18.5156 6.49219Q18.5273 6.41016 18.5098 6.20508Q18.4922 6 18.4219 5.84766Q18.3867 5.77734 18.2461 5.625Q18.1055 5.47266 17.9648 5.39063Q17.8828 5.35547 17.6836 5.31445Q17.4844 5.27344 17.3203 5.29688Q17.2383 5.3086 17.0508 5.39648Q16.8633 5.48438 16.7461 5.60156L12 10.3477L7.25391 5.60156Q7.10156 5.44922 6.91406 5.36719Q6.85547 5.35547 6.73242 5.32031Q6.60938 5.28516 6.50391 5.28516Z" />
      </g>
    </g>
    <g clip-path="url(#mask_1)">
      <path d="M0 0L25 0L25 19L0 19L0 0Z" id="Rectangle" fill="url(#gradient_1)" fill-rule="evenodd" stroke="none" />
    </g>
  </g>
</svg>